<svg id="Group_272" data-name="Group 272" xmlns="http://www.w3.org/2000/svg" xmlns:xlink="http://www.w3.org/1999/xlink" width="240.125" height="132.736" viewBox="0 0 240.125 132.736">
  <defs>
    <style>
      .cls-1, .cls-8 {
        fill: none;
      }

      .cls-2 {
        clip-path: url(#clip-path);
      }

      .cls-3 {
        fill: #2b3e4f;
      }

      .cls-4 {
        fill: #fbdabd;
      }

      .cls-5 {
        fill: #913d86;
      }

      .cls-6 {
        fill: #fff;
      }

      .cls-7 {
        fill: #9bd4ea;
      }

      .cls-8 {
        stroke: #020202;
        stroke-miterlimit: 10;
      }
    </style>
    <clipPath id="clip-path">
      <rect id="Rectangle_539" data-name="Rectangle 539" class="cls-1" width="240.125" height="132.736"/>
    </clipPath>
  </defs>
  <g id="Group_271" data-name="Group 271" class="cls-2">
    <path id="Path_20425" data-name="Path 20425" class="cls-3" d="M239.832,93.928l-110.65-4.846L53.262,20.723,51.716,22.4c1.232-9.509-.158-11.73-1.932-12.612-2.6-1.285-5.1,1.427-5.928,2.321a28.65,28.65,0,0,0-3.784,5.265C36.554,9.8,31.548.655,27.694.045a3.037,3.037,0,0,0-2.786.967c-1.242,1.347-2.057,4.214-.17,14.856-4.911-4.253-10.6-8.585-13.306-8.491a2.812,2.812,0,0,0-2.065.9c-1.431,1.551-1.845,3.812,6.125,15.864C7.4,22.451,2.484,22.512.82,24.315a3.1,3.1,0,0,0-.781,2.592c.3,1.9,2.176,4.548,12.988,10.955a20.052,20.052,0,0,0-7.312,3.754,3.147,3.147,0,0,0-.749,3.547c.844,1.959,3.455,3.882,21.794,4.284L25.785,50.5l100.386,78.16L219.848,117.6Z"/>
    <path id="Path_20426" data-name="Path 20426" class="cls-4" d="M47.771,14.3a31.665,31.665,0,0,0-4.451,5.747l-.452.559a3.745,3.745,0,0,1-3.4,1.193,4.476,4.476,0,0,1-3.306-2.607A62.854,62.854,0,0,0,27.9,5.123a71.933,71.933,0,0,0,2.345,16.268l-3.594,2.014a113.265,113.265,0,0,0-12.9-10.6,108.911,108.911,0,0,0,8.395,13.472l-2.307,3.321A68.412,68.412,0,0,0,5.117,27.184a75.926,75.926,0,0,0,14.354,9.407l-.51,3.973A48.743,48.743,0,0,0,10.134,43.7a86.462,86.462,0,0,0,18.559,1.5L46.884,25.484A40.09,40.09,0,0,0,47.771,14.3Z"/>
    <path id="Path_20427" data-name="Path 20427" class="cls-5" d="M230.644,96.689,126.669,95.124l-73-65.738L34.856,49.772l93.463,72.769,95.214-10.613Z"/>
    <path id="Path_20428" data-name="Path 20428" class="cls-6" d="M29.788,56.541s6.749-4.822,16.326-16.227S59.247,22.986,59.247,22.986l-6.316-5.359L23.892,51.514Z"/>
    <path id="Path_20429" data-name="Path 20429" class="cls-7" d="M29.788,56.541l94.607,75.678,98-9.236,16.878-29-110.1-4.9-69.935-66.1Z"/>
    <path id="Path_20430" data-name="Path 20430" class="cls-8" d="M29.788,56.541l94.607,75.678,98-9.236,16.878-29-110.1-4.9-69.935-66.1Z"/>
  </g>
</svg>
